<?xml version="1.0" encoding="UTF-8" standalone="no"?>
<!DOCTYPE svg PUBLIC "-//W3C//DTD SVG 1.1//EN"
 "http://www.w3.org/Graphics/SVG/1.1/DTD/svg11.dtd">
<!-- Generated by graphviz version 2.43.0 (0)
 -->
<!-- Title: G Pages: 1 -->
<svg width="353pt" height="287pt"
 viewBox="0.00 0.00 353.21 287.10" xmlns="http://www.w3.org/2000/svg" xmlns:xlink="http://www.w3.org/1999/xlink">
<g id="graph0" class="graph" transform="scale(1 1) rotate(0) translate(4 283.1)">
<title>G</title>
<polygon fill="white" stroke="transparent" points="-4,4 -4,-283.1 349.21,-283.1 349.21,4 -4,4"/>
<!-- board.cache_hierarchy.ruby_system.network.routers0 -->
<g id="node1" class="node">
<title>board.cache_hierarchy.ruby_system.network.routers0</title>
<path fill="#cce6fc" stroke="#000000" d="M117.68,-103.41C117.68,-103.41 147.68,-103.41 147.68,-103.41 153.68,-103.41 159.68,-109.41 159.68,-115.41 159.68,-115.41 159.68,-127.41 159.68,-127.41 159.68,-133.41 153.68,-139.41 147.68,-139.41 147.68,-139.41 117.68,-139.41 117.68,-139.41 111.68,-139.41 105.68,-133.41 105.68,-127.41 105.68,-127.41 105.68,-115.41 105.68,-115.41 105.68,-109.41 111.68,-103.41 117.68,-103.41"/>
<text text-anchor="middle" x="132.68" y="-117.71" font-family="Arial" font-size="14.00" fill="#000000">R 0</text>
</g>
<!-- board.cache_hierarchy.ruby_system.network.routers1 -->
<g id="node2" class="node">
<title>board.cache_hierarchy.ruby_system.network.routers1</title>
<path fill="#cce6fc" stroke="#000000" d="M198.79,-106.36C198.79,-106.36 228.79,-106.36 228.79,-106.36 234.79,-106.36 240.79,-112.36 240.79,-118.36 240.79,-118.36 240.79,-130.36 240.79,-130.36 240.79,-136.36 234.79,-142.36 228.79,-142.36 228.79,-142.36 198.79,-142.36 198.79,-142.36 192.79,-142.36 186.79,-136.36 186.79,-130.36 186.79,-130.36 186.79,-118.36 186.79,-118.36 186.79,-112.36 192.79,-106.36 198.79,-106.36"/>
<text text-anchor="middle" x="213.79" y="-120.66" font-family="Arial" font-size="14.00" fill="#000000">R 1</text>
</g>
<!-- board.cache_hierarchy.ruby_system.network.routers0&#45;&#45;board.cache_hierarchy.ruby_system.network.routers1 -->
<g id="edge1" class="edge">
<title>board.cache_hierarchy.ruby_system.network.routers0&#45;&#45;board.cache_hierarchy.ruby_system.network.routers1</title>
<path fill="none" stroke="#042d50" d="M159.69,-122.39C165.1,-122.59 170.88,-122.8 176.57,-123.01"/>
<polygon fill="#042d50" stroke="#042d50" points="176.5,-126.51 186.62,-123.37 176.76,-119.51 176.5,-126.51"/>
</g>
<!-- board.cache_hierarchy.ruby_system.network.routers2 -->
<g id="node3" class="node">
<title>board.cache_hierarchy.ruby_system.network.routers2</title>
<path fill="#cce6fc" stroke="#000000" d="M142.28,-80.51C142.28,-80.51 172.28,-80.51 172.28,-80.51 178.28,-80.51 184.28,-86.51 184.28,-92.51 184.28,-92.51 184.28,-104.51 184.28,-104.51 184.28,-110.51 178.28,-116.51 172.28,-116.51 172.28,-116.51 142.28,-116.51 142.28,-116.51 136.28,-116.51 130.28,-110.51 130.28,-104.51 130.28,-104.51 130.28,-92.51 130.28,-92.51 130.28,-86.51 136.28,-80.51 142.28,-80.51"/>
<text text-anchor="middle" x="157.28" y="-94.81" font-family="Arial" font-size="14.00" fill="#000000">R 2</text>
</g>
<!-- board.cache_hierarchy.ruby_system.network.routers0&#45;&#45;board.cache_hierarchy.ruby_system.network.routers2 -->
<g id="edge2" class="edge">
<title>board.cache_hierarchy.ruby_system.network.routers0&#45;&#45;board.cache_hierarchy.ruby_system.network.routers2</title>
<path fill="none" stroke="#042d50" d="M157.89,-103.38C157.91,-103.32 157.93,-103.26 157.94,-103.19"/>
<polygon fill="#042d50" stroke="#042d50" points="158.74,-113.58 157.99,-103.01 151.98,-111.74 158.74,-113.58"/>
</g>
<!-- board.cache_hierarchy.ruby_system.network.routers3 -->
<g id="node4" class="node">
<title>board.cache_hierarchy.ruby_system.network.routers3</title>
<path fill="#cce6fc" stroke="#000000" d="M115.72,-137.51C115.72,-137.51 145.72,-137.51 145.72,-137.51 151.72,-137.51 157.72,-143.51 157.72,-149.51 157.72,-149.51 157.72,-161.51 157.72,-161.51 157.72,-167.51 151.72,-173.51 145.72,-173.51 145.72,-173.51 115.72,-173.51 115.72,-173.51 109.72,-173.51 103.72,-167.51 103.72,-161.51 103.72,-161.51 103.72,-149.51 103.72,-149.51 103.72,-143.51 109.72,-137.51 115.72,-137.51"/>
<text text-anchor="middle" x="130.72" y="-151.81" font-family="Arial" font-size="14.00" fill="#000000">R 3</text>
</g>
<!-- board.cache_hierarchy.ruby_system.network.routers0&#45;&#45;board.cache_hierarchy.ruby_system.network.routers3 -->
<g id="edge3" class="edge">
<title>board.cache_hierarchy.ruby_system.network.routers0&#45;&#45;board.cache_hierarchy.ruby_system.network.routers3</title>
<path fill="none" stroke="#042d50" d="M124.9,-139.67C124.89,-139.74 124.89,-139.8 124.89,-139.86"/>
<polygon fill="#042d50" stroke="#042d50" points="121.58,-129.98 124.89,-140.05 128.58,-130.11 121.58,-129.98"/>
</g>
<!-- board.cache_hierarchy.ruby_system.network.routers4 -->
<g id="node5" class="node">
<title>board.cache_hierarchy.ruby_system.network.routers4</title>
<path fill="#cce6fc" stroke="#000000" d="M197.5,-139.88C197.5,-139.88 227.5,-139.88 227.5,-139.88 233.5,-139.88 239.5,-145.88 239.5,-151.88 239.5,-151.88 239.5,-163.88 239.5,-163.88 239.5,-169.88 233.5,-175.88 227.5,-175.88 227.5,-175.88 197.5,-175.88 197.5,-175.88 191.5,-175.88 185.5,-169.88 185.5,-163.88 185.5,-163.88 185.5,-151.88 185.5,-151.88 185.5,-145.88 191.5,-139.88 197.5,-139.88"/>
<text text-anchor="middle" x="212.5" y="-154.18" font-family="Arial" font-size="14.00" fill="#000000">R 4</text>
</g>
<!-- board.cache_hierarchy.ruby_system.network.routers0&#45;&#45;board.cache_hierarchy.ruby_system.network.routers4 -->
<g id="edge4" class="edge">
<title>board.cache_hierarchy.ruby_system.network.routers0&#45;&#45;board.cache_hierarchy.ruby_system.network.routers4</title>
<path fill="none" stroke="#042d50" d="M157.03,-139.6C163.03,-142.7 169.59,-145.79 176.03,-148.56"/>
<polygon fill="#042d50" stroke="#042d50" points="174.72,-151.81 185.3,-152.37 177.38,-145.33 174.72,-151.81"/>
</g>
<!-- board.cache_hierarchy.ruby_system.network.routers5 -->
<g id="node6" class="node">
<title>board.cache_hierarchy.ruby_system.network.routers5</title>
<path fill="#cce6fc" stroke="#000000" d="M173.09,-163.67C173.09,-163.67 203.09,-163.67 203.09,-163.67 209.09,-163.67 215.09,-169.67 215.09,-175.67 215.09,-175.67 215.09,-187.67 215.09,-187.67 215.09,-193.67 209.09,-199.67 203.09,-199.67 203.09,-199.67 173.09,-199.67 173.09,-199.67 167.09,-199.67 161.09,-193.67 161.09,-187.67 161.09,-187.67 161.09,-175.67 161.09,-175.67 161.09,-169.67 167.09,-163.67 173.09,-163.67"/>
<text text-anchor="middle" x="188.09" y="-177.97" font-family="Arial" font-size="14.00" fill="#000000">R 5</text>
</g>
<!-- board.cache_hierarchy.ruby_system.network.routers0&#45;&#45;board.cache_hierarchy.ruby_system.network.routers5 -->
<g id="edge5" class="edge">
<title>board.cache_hierarchy.ruby_system.network.routers0&#45;&#45;board.cache_hierarchy.ruby_system.network.routers5</title>
<path fill="none" stroke="#042d50" d="M141.51,-139.64C145.46,-144.84 150.33,-150.58 155.41,-156.11"/>
<polygon fill="#042d50" stroke="#042d50" points="152.99,-158.63 162.42,-163.45 158.05,-153.8 152.99,-158.63"/>
</g>
<!-- board.cache_hierarchy.ruby_system.network.routers6 -->
<g id="node7" class="node">
<title>board.cache_hierarchy.ruby_system.network.routers6</title>
<path fill="#cce6fc" stroke="#000000" d="M139.95,-160.39C139.95,-160.39 169.95,-160.39 169.95,-160.39 175.95,-160.39 181.95,-166.39 181.95,-172.39 181.95,-172.39 181.95,-184.39 181.95,-184.39 181.95,-190.39 175.95,-196.39 169.95,-196.39 169.95,-196.39 139.95,-196.39 139.95,-196.39 133.95,-196.39 127.95,-190.39 127.95,-184.39 127.95,-184.39 127.95,-172.39 127.95,-172.39 127.95,-166.39 133.95,-160.39 139.95,-160.39"/>
<text text-anchor="middle" x="154.95" y="-174.69" font-family="Arial" font-size="14.00" fill="#000000">R 6</text>
</g>
<!-- board.cache_hierarchy.ruby_system.network.routers0&#45;&#45;board.cache_hierarchy.ruby_system.network.routers6 -->
<g id="edge6" class="edge">
<title>board.cache_hierarchy.ruby_system.network.routers0&#45;&#45;board.cache_hierarchy.ruby_system.network.routers6</title>
<path fill="none" stroke="#042d50" d="M133.18,-139.51C134.19,-143.1 135.47,-146.95 136.91,-150.77"/>
<polygon fill="#042d50" stroke="#042d50" points="133.71,-152.19 140.79,-160.07 140.17,-149.5 133.71,-152.19"/>
</g>
<!-- board.cache_hierarchy.ruby_system.network.routers7 -->
<g id="node8" class="node">
<title>board.cache_hierarchy.ruby_system.network.routers7</title>
<path fill="#cce6fc" stroke="#000000" d="M175.85,-81.82C175.85,-81.82 205.85,-81.82 205.85,-81.82 211.85,-81.82 217.85,-87.82 217.85,-93.82 217.85,-93.82 217.85,-105.82 217.85,-105.82 217.85,-111.82 211.85,-117.82 205.85,-117.82 205.85,-117.82 175.85,-117.82 175.85,-117.82 169.85,-117.82 163.85,-111.82 163.85,-105.82 163.85,-105.82 163.85,-93.82 163.85,-93.82 163.85,-87.82 169.85,-81.82 175.85,-81.82"/>
<text text-anchor="middle" x="190.85" y="-96.12" font-family="Arial" font-size="14.00" fill="#000000">R 7</text>
</g>
<!-- board.cache_hierarchy.ruby_system.network.routers0&#45;&#45;board.cache_hierarchy.ruby_system.network.routers7 -->
<g id="edge7" class="edge">
<title>board.cache_hierarchy.ruby_system.network.routers0&#45;&#45;board.cache_hierarchy.ruby_system.network.routers7</title>
<path fill="none" stroke="#042d50" d="M160.01,-118.4C160.17,-118.35 160.33,-118.29 160.48,-118.24"/>
<polygon fill="#042d50" stroke="#042d50" points="155.5,-123.73 163.75,-117.07 153.16,-117.13 155.5,-123.73"/>
</g>
<!-- board.cache_hierarchy.ruby_system.network.routers1&#45;&#45;board.cache_hierarchy.ruby_system.network.routers2 -->
<g id="edge8" class="edge">
<title>board.cache_hierarchy.ruby_system.network.routers1&#45;&#45;board.cache_hierarchy.ruby_system.network.routers2</title>
<path fill="none" stroke="#042d50" d="M186.53,-111.89C186.44,-111.85 186.36,-111.81 186.27,-111.78"/>
<polygon fill="#042d50" stroke="#042d50" points="195.04,-111.94 184.49,-110.96 192.13,-118.3 195.04,-111.94"/>
</g>
<!-- board.cache_hierarchy.ruby_system.network.routers1&#45;&#45;board.cache_hierarchy.ruby_system.network.routers3 -->
<g id="edge9" class="edge">
<title>board.cache_hierarchy.ruby_system.network.routers1&#45;&#45;board.cache_hierarchy.ruby_system.network.routers3</title>
<path fill="none" stroke="#042d50" d="M186.68,-127.86C180.44,-129.78 173.71,-132.13 167.15,-134.66"/>
<polygon fill="#042d50" stroke="#042d50" points="165.7,-131.47 157.74,-138.46 168.32,-137.96 165.7,-131.47"/>
</g>
<!-- board.cache_hierarchy.ruby_system.network.routers1&#45;&#45;board.cache_hierarchy.ruby_system.network.routers4 -->
<g id="edge10" class="edge">
<title>board.cache_hierarchy.ruby_system.network.routers1&#45;&#45;board.cache_hierarchy.ruby_system.network.routers4</title>
<path fill="none" stroke="#042d50" d="M206.36,-142.43C206.36,-142.49 206.36,-142.55 206.36,-142.62"/>
<polygon fill="#042d50" stroke="#042d50" points="202.85,-132.8 206.36,-142.8 209.85,-132.79 202.85,-132.8"/>
</g>
<!-- board.cache_hierarchy.ruby_system.network.routers1&#45;&#45;board.cache_hierarchy.ruby_system.network.routers5 -->
<g id="edge11" class="edge">
<title>board.cache_hierarchy.ruby_system.network.routers1&#45;&#45;board.cache_hierarchy.ruby_system.network.routers5</title>
<path fill="none" stroke="#042d50" d="M198.57,-142.39C196.66,-146.08 194.82,-150.04 193.17,-153.98"/>
<polygon fill="#042d50" stroke="#042d50" points="189.81,-152.97 189.54,-163.56 196.36,-155.44 189.81,-152.97"/>
</g>
<!-- board.cache_hierarchy.ruby_system.network.routers1&#45;&#45;board.cache_hierarchy.ruby_system.network.routers6 -->
<g id="edge12" class="edge">
<title>board.cache_hierarchy.ruby_system.network.routers1&#45;&#45;board.cache_hierarchy.ruby_system.network.routers6</title>
<path fill="none" stroke="#042d50" d="M186.76,-140.25C182.04,-144.28 177.24,-148.69 172.84,-153.04"/>
<polygon fill="#042d50" stroke="#042d50" points="170.31,-150.62 165.88,-160.25 175.35,-155.48 170.31,-150.62"/>
</g>
<!-- board.cache_hierarchy.ruby_system.network.routers1&#45;&#45;board.cache_hierarchy.ruby_system.network.routers7 -->
<g id="edge13" class="edge">
<title>board.cache_hierarchy.ruby_system.network.routers1&#45;&#45;board.cache_hierarchy.ruby_system.network.routers7</title>
<path fill="none" stroke="#042d50" d="M206.16,-106.35C206.12,-106.31 206.08,-106.26 206.03,-106.22"/>
<polygon fill="#042d50" stroke="#042d50" points="215.48,-110.63 205.9,-106.09 210.55,-115.61 215.48,-110.63"/>
</g>
<!-- board.cache_hierarchy.ruby_system.network.routers2&#45;&#45;board.cache_hierarchy.ruby_system.network.routers0 -->
<g id="edge14" class="edge">
<title>board.cache_hierarchy.ruby_system.network.routers2&#45;&#45;board.cache_hierarchy.ruby_system.network.routers0</title>
<path fill="none" stroke="#042d50" d="M132.06,-116.54C132.04,-116.6 132.02,-116.67 132.01,-116.73"/>
<polygon fill="#042d50" stroke="#042d50" points="131.21,-106.34 131.96,-116.91 137.97,-108.18 131.21,-106.34"/>
</g>
<!-- board.cache_hierarchy.ruby_system.network.routers2&#45;&#45;board.cache_hierarchy.ruby_system.network.routers3 -->
<g id="edge15" class="edge">
<title>board.cache_hierarchy.ruby_system.network.routers2&#45;&#45;board.cache_hierarchy.ruby_system.network.routers3</title>
<path fill="none" stroke="#042d50" d="M148.87,-116.55C147.13,-120.29 145.26,-124.31 143.4,-128.3"/>
<polygon fill="#042d50" stroke="#042d50" points="140.21,-126.86 139.16,-137.4 146.56,-129.81 140.21,-126.86"/>
</g>
<!-- board.cache_hierarchy.ruby_system.network.routers2&#45;&#45;board.cache_hierarchy.ruby_system.network.routers4 -->
<g id="edge16" class="edge">
<title>board.cache_hierarchy.ruby_system.network.routers2&#45;&#45;board.cache_hierarchy.ruby_system.network.routers4</title>
<path fill="none" stroke="#042d50" d="M166.09,-116.56C169.86,-121.47 174.46,-126.87 179.3,-132.1"/>
<polygon fill="#042d50" stroke="#042d50" points="177.03,-134.79 186.48,-139.58 182.08,-129.94 177.03,-134.79"/>
</g>
<!-- board.cache_hierarchy.ruby_system.network.routers2&#45;&#45;board.cache_hierarchy.ruby_system.network.routers5 -->
<g id="edge17" class="edge">
<title>board.cache_hierarchy.ruby_system.network.routers2&#45;&#45;board.cache_hierarchy.ruby_system.network.routers5</title>
<path fill="none" stroke="#042d50" d="M158.2,-116.85C160.98,-127.8 165.85,-141.9 170.96,-154.16"/>
<polygon fill="#042d50" stroke="#042d50" points="167.84,-155.76 175.08,-163.5 174.25,-152.94 167.84,-155.76"/>
</g>
<!-- board.cache_hierarchy.ruby_system.network.routers2&#45;&#45;board.cache_hierarchy.ruby_system.network.routers6 -->
<g id="edge18" class="edge">
<title>board.cache_hierarchy.ruby_system.network.routers2&#45;&#45;board.cache_hierarchy.ruby_system.network.routers6</title>
<path fill="none" stroke="#042d50" d="M150.94,-116.87C149.67,-126.76 149.09,-139.18 149.29,-150.26"/>
<polygon fill="#042d50" stroke="#042d50" points="145.8,-150.51 149.73,-160.35 152.79,-150.21 145.8,-150.51"/>
</g>
<!-- board.cache_hierarchy.ruby_system.network.routers2&#45;&#45;board.cache_hierarchy.ruby_system.network.routers7 -->
<g id="edge19" class="edge">
<title>board.cache_hierarchy.ruby_system.network.routers2&#45;&#45;board.cache_hierarchy.ruby_system.network.routers7</title>
<path fill="none" stroke="#042d50" d="M184.49,-104.94C184.55,-104.92 184.6,-104.91 184.66,-104.89"/>
<polygon fill="#042d50" stroke="#042d50" points="176.13,-110.89 184.83,-104.84 174.26,-104.14 176.13,-110.89"/>
</g>
<!-- board.cache_hierarchy.ruby_system.network.routers3&#45;&#45;board.cache_hierarchy.ruby_system.network.routers0 -->
<g id="edge20" class="edge">
<title>board.cache_hierarchy.ruby_system.network.routers3&#45;&#45;board.cache_hierarchy.ruby_system.network.routers0</title>
<path fill="none" stroke="#042d50" d="M138.5,-137.25C138.51,-137.19 138.51,-137.12 138.51,-137.06"/>
<polygon fill="#042d50" stroke="#042d50" points="141.82,-146.94 138.51,-136.87 134.82,-146.81 141.82,-146.94"/>
</g>
<!-- board.cache_hierarchy.ruby_system.network.routers3&#45;&#45;board.cache_hierarchy.ruby_system.network.routers1 -->
<g id="edge21" class="edge">
<title>board.cache_hierarchy.ruby_system.network.routers3&#45;&#45;board.cache_hierarchy.ruby_system.network.routers1</title>
<path fill="none" stroke="#042d50" d="M157.84,-152.02C164.08,-150.09 170.81,-147.74 177.37,-145.22"/>
<polygon fill="#042d50" stroke="#042d50" points="178.82,-148.41 186.78,-141.42 176.19,-141.92 178.82,-148.41"/>
</g>
<!-- board.cache_hierarchy.ruby_system.network.routers3&#45;&#45;board.cache_hierarchy.ruby_system.network.routers4 -->
<g id="edge22" class="edge">
<title>board.cache_hierarchy.ruby_system.network.routers3&#45;&#45;board.cache_hierarchy.ruby_system.network.routers4</title>
<path fill="none" stroke="#042d50" d="M157.95,-156.3C163.47,-156.46 169.36,-156.63 175.16,-156.8"/>
<polygon fill="#042d50" stroke="#042d50" points="175.29,-160.31 185.39,-157.1 175.49,-153.31 175.29,-160.31"/>
</g>
<!-- board.cache_hierarchy.ruby_system.network.routers3&#45;&#45;board.cache_hierarchy.ruby_system.network.routers5 -->
<g id="edge23" class="edge">
<title>board.cache_hierarchy.ruby_system.network.routers3&#45;&#45;board.cache_hierarchy.ruby_system.network.routers5</title>
<path fill="none" stroke="#042d50" d="M154.26,-173.64C154.4,-173.71 154.54,-173.78 154.68,-173.84"/>
<polygon fill="#042d50" stroke="#042d50" points="150.45,-175.78 161,-176.66 153.3,-169.39 150.45,-175.78"/>
</g>
<!-- board.cache_hierarchy.ruby_system.network.routers3&#45;&#45;board.cache_hierarchy.ruby_system.network.routers6 -->
<g id="edge24" class="edge">
<title>board.cache_hierarchy.ruby_system.network.routers3&#45;&#45;board.cache_hierarchy.ruby_system.network.routers6</title>
<path fill="none" stroke="#042d50" d="M140.23,-173.67C140.28,-173.71 140.32,-173.74 140.37,-173.78"/>
<polygon fill="#042d50" stroke="#042d50" points="130.56,-170.21 140.5,-173.89 135.03,-164.82 130.56,-170.21"/>
</g>
<!-- board.cache_hierarchy.ruby_system.network.routers3&#45;&#45;board.cache_hierarchy.ruby_system.network.routers7 -->
<g id="edge25" class="edge">
<title>board.cache_hierarchy.ruby_system.network.routers3&#45;&#45;board.cache_hierarchy.ruby_system.network.routers7</title>
<path fill="none" stroke="#042d50" d="M157.92,-139.28C162.98,-134.93 168.14,-130.14 172.84,-125.43"/>
<polygon fill="#042d50" stroke="#042d50" points="175.4,-127.83 179.78,-118.18 170.34,-122.99 175.4,-127.83"/>
</g>
<!-- board.cache_hierarchy.ruby_system.network.routers4&#45;&#45;board.cache_hierarchy.ruby_system.network.routers0 -->
<g id="edge26" class="edge">
<title>board.cache_hierarchy.ruby_system.network.routers4&#45;&#45;board.cache_hierarchy.ruby_system.network.routers0</title>
<path fill="none" stroke="#042d50" d="M188.14,-139.69C182.14,-136.59 175.58,-133.51 169.14,-130.73"/>
<polygon fill="#042d50" stroke="#042d50" points="170.45,-127.48 159.87,-126.92 167.79,-133.96 170.45,-127.48"/>
</g>
<!-- board.cache_hierarchy.ruby_system.network.routers4&#45;&#45;board.cache_hierarchy.ruby_system.network.routers1 -->
<g id="edge27" class="edge">
<title>board.cache_hierarchy.ruby_system.network.routers4&#45;&#45;board.cache_hierarchy.ruby_system.network.routers1</title>
<path fill="none" stroke="#042d50" d="M219.92,-139.81C219.92,-139.75 219.92,-139.69 219.92,-139.63"/>
<polygon fill="#042d50" stroke="#042d50" points="223.44,-149.44 219.92,-139.45 216.44,-149.45 223.44,-149.44"/>
</g>
<!-- board.cache_hierarchy.ruby_system.network.routers4&#45;&#45;board.cache_hierarchy.ruby_system.network.routers2 -->
<g id="edge28" class="edge">
<title>board.cache_hierarchy.ruby_system.network.routers4&#45;&#45;board.cache_hierarchy.ruby_system.network.routers2</title>
<path fill="none" stroke="#042d50" d="M203.69,-139.84C199.91,-134.93 195.31,-129.53 190.47,-124.29"/>
<polygon fill="#042d50" stroke="#042d50" points="192.74,-121.61 183.29,-116.82 187.69,-126.45 192.74,-121.61"/>
</g>
<!-- board.cache_hierarchy.ruby_system.network.routers4&#45;&#45;board.cache_hierarchy.ruby_system.network.routers5 -->
<g id="edge29" class="edge">
<title>board.cache_hierarchy.ruby_system.network.routers4&#45;&#45;board.cache_hierarchy.ruby_system.network.routers5</title>
<path fill="none" stroke="#042d50" d="M194,-175.91C193.94,-175.96 193.89,-176.02 193.84,-176.07"/>
<polygon fill="#042d50" stroke="#042d50" points="198.4,-166.73 193.68,-176.22 203.29,-171.75 198.4,-166.73"/>
</g>
<!-- board.cache_hierarchy.ruby_system.network.routers4&#45;&#45;board.cache_hierarchy.ruby_system.network.routers6 -->
<g id="edge30" class="edge">
<title>board.cache_hierarchy.ruby_system.network.routers4&#45;&#45;board.cache_hierarchy.ruby_system.network.routers6</title>
<path fill="none" stroke="#042d50" d="M185.17,-160.51C185.05,-160.55 184.93,-160.59 184.8,-160.63"/>
<polygon fill="#042d50" stroke="#042d50" points="190.57,-154.97 182.23,-161.5 192.83,-161.59 190.57,-154.97"/>
</g>
<!-- board.cache_hierarchy.ruby_system.network.routers4&#45;&#45;board.cache_hierarchy.ruby_system.network.routers7 -->
<g id="edge31" class="edge">
<title>board.cache_hierarchy.ruby_system.network.routers4&#45;&#45;board.cache_hierarchy.ruby_system.network.routers7</title>
<path fill="none" stroke="#042d50" d="M212.21,-139.57C211.19,-135.74 209.87,-131.61 208.38,-127.53"/>
<polygon fill="#042d50" stroke="#042d50" points="211.61,-126.18 204.64,-118.21 205.12,-128.79 211.61,-126.18"/>
</g>
<!-- board.cache_hierarchy.ruby_system.network.routers5&#45;&#45;board.cache_hierarchy.ruby_system.network.routers0 -->
<g id="edge32" class="edge">
<title>board.cache_hierarchy.ruby_system.network.routers5&#45;&#45;board.cache_hierarchy.ruby_system.network.routers0</title>
<path fill="none" stroke="#042d50" d="M179.26,-163.44C175.3,-158.24 170.44,-152.5 165.35,-146.97"/>
<polygon fill="#042d50" stroke="#042d50" points="167.78,-144.44 158.34,-139.63 162.71,-149.28 167.78,-144.44"/>
</g>
<!-- board.cache_hierarchy.ruby_system.network.routers5&#45;&#45;board.cache_hierarchy.ruby_system.network.routers1 -->
<g id="edge33" class="edge">
<title>board.cache_hierarchy.ruby_system.network.routers5&#45;&#45;board.cache_hierarchy.ruby_system.network.routers1</title>
<path fill="none" stroke="#042d50" d="M203.31,-163.65C205.22,-159.95 207.07,-155.99 208.72,-152.05"/>
<polygon fill="#042d50" stroke="#042d50" points="212.08,-153.07 212.34,-142.48 205.53,-150.59 212.08,-153.07"/>
</g>
<!-- board.cache_hierarchy.ruby_system.network.routers5&#45;&#45;board.cache_hierarchy.ruby_system.network.routers2 -->
<g id="edge34" class="edge">
<title>board.cache_hierarchy.ruby_system.network.routers5&#45;&#45;board.cache_hierarchy.ruby_system.network.routers2</title>
<path fill="none" stroke="#042d50" d="M187.16,-163.33C184.39,-152.38 179.52,-138.28 174.4,-126.03"/>
<polygon fill="#042d50" stroke="#042d50" points="177.52,-124.42 170.29,-116.69 171.12,-127.25 177.52,-124.42"/>
</g>
<!-- board.cache_hierarchy.ruby_system.network.routers5&#45;&#45;board.cache_hierarchy.ruby_system.network.routers3 -->
<g id="edge35" class="edge">
<title>board.cache_hierarchy.ruby_system.network.routers5&#45;&#45;board.cache_hierarchy.ruby_system.network.routers3</title>
<path fill="none" stroke="#042d50" d="M164.55,-163.54C164.41,-163.47 164.27,-163.41 164.13,-163.34"/>
<polygon fill="#042d50" stroke="#042d50" points="168.37,-161.4 157.81,-160.52 165.52,-167.79 168.37,-161.4"/>
</g>
<!-- board.cache_hierarchy.ruby_system.network.routers5&#45;&#45;board.cache_hierarchy.ruby_system.network.routers6 -->
<g id="edge36" class="edge">
<title>board.cache_hierarchy.ruby_system.network.routers5&#45;&#45;board.cache_hierarchy.ruby_system.network.routers6</title>
<path fill="none" stroke="#042d50" d="M161.02,-178.99C160.97,-178.99 160.91,-178.98 160.86,-178.98"/>
<polygon fill="#042d50" stroke="#042d50" points="170.99,-176.47 160.69,-178.96 170.3,-183.43 170.99,-176.47"/>
</g>
<!-- board.cache_hierarchy.ruby_system.network.routers5&#45;&#45;board.cache_hierarchy.ruby_system.network.routers7 -->
<g id="edge37" class="edge">
<title>board.cache_hierarchy.ruby_system.network.routers5&#45;&#45;board.cache_hierarchy.ruby_system.network.routers7</title>
<path fill="none" stroke="#042d50" d="M194.48,-163.29C195.85,-152.92 196.52,-139.75 196.35,-128.1"/>
<polygon fill="#042d50" stroke="#042d50" points="199.84,-127.8 195.94,-117.95 192.84,-128.08 199.84,-127.8"/>
</g>
<!-- board.cache_hierarchy.ruby_system.network.routers6&#45;&#45;board.cache_hierarchy.ruby_system.network.routers0 -->
<g id="edge38" class="edge">
<title>board.cache_hierarchy.ruby_system.network.routers6&#45;&#45;board.cache_hierarchy.ruby_system.network.routers0</title>
<path fill="none" stroke="#042d50" d="M154.45,-160.29C153.44,-156.7 152.15,-152.86 150.71,-149.03"/>
<polygon fill="#042d50" stroke="#042d50" points="153.91,-147.62 146.84,-139.73 147.45,-150.31 153.91,-147.62"/>
</g>
<!-- board.cache_hierarchy.ruby_system.network.routers6&#45;&#45;board.cache_hierarchy.ruby_system.network.routers1 -->
<g id="edge39" class="edge">
<title>board.cache_hierarchy.ruby_system.network.routers6&#45;&#45;board.cache_hierarchy.ruby_system.network.routers1</title>
<path fill="none" stroke="#042d50" d="M181.98,-162.51C186.7,-158.48 191.5,-154.07 195.9,-149.71"/>
<polygon fill="#042d50" stroke="#042d50" points="198.43,-152.13 202.86,-142.51 193.39,-147.27 198.43,-152.13"/>
</g>
<!-- board.cache_hierarchy.ruby_system.network.routers6&#45;&#45;board.cache_hierarchy.ruby_system.network.routers2 -->
<g id="edge40" class="edge">
<title>board.cache_hierarchy.ruby_system.network.routers6&#45;&#45;board.cache_hierarchy.ruby_system.network.routers2</title>
<path fill="none" stroke="#042d50" d="M161.28,-160.04C162.55,-150.14 163.13,-137.73 162.93,-126.65"/>
<polygon fill="#042d50" stroke="#042d50" points="166.42,-126.39 162.49,-116.56 159.43,-126.7 166.42,-126.39"/>
</g>
<!-- board.cache_hierarchy.ruby_system.network.routers6&#45;&#45;board.cache_hierarchy.ruby_system.network.routers3 -->
<g id="edge41" class="edge">
<title>board.cache_hierarchy.ruby_system.network.routers6&#45;&#45;board.cache_hierarchy.ruby_system.network.routers3</title>
<path fill="none" stroke="#042d50" d="M145.44,-160.24C145.39,-160.2 145.35,-160.16 145.3,-160.13"/>
<polygon fill="#042d50" stroke="#042d50" points="155.11,-163.7 145.17,-160.02 150.64,-169.09 155.11,-163.7"/>
</g>
<!-- board.cache_hierarchy.ruby_system.network.routers6&#45;&#45;board.cache_hierarchy.ruby_system.network.routers4 -->
<g id="edge42" class="edge">
<title>board.cache_hierarchy.ruby_system.network.routers6&#45;&#45;board.cache_hierarchy.ruby_system.network.routers4</title>
<path fill="none" stroke="#042d50" d="M182.27,-175.77C182.39,-175.73 182.51,-175.69 182.64,-175.65"/>
<polygon fill="#042d50" stroke="#042d50" points="176.87,-181.31 185.21,-174.77 174.61,-174.68 176.87,-181.31"/>
</g>
<!-- board.cache_hierarchy.ruby_system.network.routers6&#45;&#45;board.cache_hierarchy.ruby_system.network.routers7 -->
<g id="edge43" class="edge">
<title>board.cache_hierarchy.ruby_system.network.routers6&#45;&#45;board.cache_hierarchy.ruby_system.network.routers7</title>
<path fill="none" stroke="#042d50" d="M163.27,-160.17C167.76,-150.35 173.39,-138.04 178.38,-127.1"/>
<polygon fill="#042d50" stroke="#042d50" points="181.6,-128.49 182.57,-117.94 175.23,-125.58 181.6,-128.49"/>
</g>
<!-- board.cache_hierarchy.ruby_system.network.routers7&#45;&#45;board.cache_hierarchy.ruby_system.network.routers0 -->
<g id="edge44" class="edge">
<title>board.cache_hierarchy.ruby_system.network.routers7&#45;&#45;board.cache_hierarchy.ruby_system.network.routers0</title>
<path fill="none" stroke="#042d50" d="M163.52,-102.83C163.36,-102.88 163.2,-102.93 163.05,-102.98"/>
<polygon fill="#042d50" stroke="#042d50" points="168.03,-97.5 159.78,-104.15 170.37,-104.09 168.03,-97.5"/>
</g>
<!-- board.cache_hierarchy.ruby_system.network.routers7&#45;&#45;board.cache_hierarchy.ruby_system.network.routers1 -->
<g id="edge45" class="edge">
<title>board.cache_hierarchy.ruby_system.network.routers7&#45;&#45;board.cache_hierarchy.ruby_system.network.routers1</title>
<path fill="none" stroke="#042d50" d="M198.49,-117.83C198.53,-117.87 198.57,-117.92 198.62,-117.96"/>
<polygon fill="#042d50" stroke="#042d50" points="189.17,-113.55 198.75,-118.09 194.09,-108.57 189.17,-113.55"/>
</g>
<!-- board.cache_hierarchy.ruby_system.network.routers7&#45;&#45;board.cache_hierarchy.ruby_system.network.routers2 -->
<g id="edge46" class="edge">
<title>board.cache_hierarchy.ruby_system.network.routers7&#45;&#45;board.cache_hierarchy.ruby_system.network.routers2</title>
<path fill="none" stroke="#042d50" d="M163.64,-93.39C163.58,-93.41 163.53,-93.42 163.47,-93.44"/>
<polygon fill="#042d50" stroke="#042d50" points="172,-87.44 163.3,-93.49 173.87,-94.19 172,-87.44"/>
</g>
<!-- board.cache_hierarchy.ruby_system.network.routers7&#45;&#45;board.cache_hierarchy.ruby_system.network.routers3 -->
<g id="edge47" class="edge">
<title>board.cache_hierarchy.ruby_system.network.routers7&#45;&#45;board.cache_hierarchy.ruby_system.network.routers3</title>
<path fill="none" stroke="#042d50" d="M163.66,-116.05C158.6,-120.4 153.44,-125.19 148.74,-129.9"/>
<polygon fill="#042d50" stroke="#042d50" points="146.18,-127.5 141.8,-137.15 151.24,-132.34 146.18,-127.5"/>
</g>
<!-- board.cache_hierarchy.ruby_system.network.routers7&#45;&#45;board.cache_hierarchy.ruby_system.network.routers4 -->
<g id="edge48" class="edge">
<title>board.cache_hierarchy.ruby_system.network.routers7&#45;&#45;board.cache_hierarchy.ruby_system.network.routers4</title>
<path fill="none" stroke="#042d50" d="M191.14,-118.13C192.16,-121.96 193.48,-126.09 194.97,-130.17"/>
<polygon fill="#042d50" stroke="#042d50" points="191.74,-131.52 198.71,-139.49 198.23,-128.91 191.74,-131.52"/>
</g>
<!-- board.cache_hierarchy.ruby_system.network.routers7&#45;&#45;board.cache_hierarchy.ruby_system.network.routers5 -->
<g id="edge49" class="edge">
<title>board.cache_hierarchy.ruby_system.network.routers7&#45;&#45;board.cache_hierarchy.ruby_system.network.routers5</title>
<path fill="none" stroke="#042d50" d="M184.47,-118.2C183.09,-128.56 182.42,-141.73 182.6,-153.39"/>
<polygon fill="#042d50" stroke="#042d50" points="179.11,-153.69 183,-163.54 186.1,-153.41 179.11,-153.69"/>
</g>
<!-- board.cache_hierarchy.ruby_system.l1_controllers0 -->
<g id="node9" class="node">
<title>board.cache_hierarchy.ruby_system.l1_controllers0</title>
<path fill="#e5bcd0" stroke="#000000" d="M15.8,-67.18C15.8,-67.18 95.8,-67.18 95.8,-67.18 101.8,-67.18 107.8,-73.18 107.8,-79.18 107.8,-79.18 107.8,-91.18 107.8,-91.18 107.8,-97.18 101.8,-103.18 95.8,-103.18 95.8,-103.18 15.8,-103.18 15.8,-103.18 9.8,-103.18 3.8,-97.18 3.8,-91.18 3.8,-91.18 3.8,-79.18 3.8,-79.18 3.8,-73.18 9.8,-67.18 15.8,-67.18"/>
<text text-anchor="middle" x="55.8" y="-81.48" font-family="Arial" font-size="14.00" fill="#000000">l1_controllers0</text>
</g>
<!-- board.cache_hierarchy.ruby_system.l1_controllers0&#45;&#45;board.cache_hierarchy.ruby_system.network.routers0 -->
<g id="edge50" class="edge">
<title>board.cache_hierarchy.ruby_system.l1_controllers0&#45;&#45;board.cache_hierarchy.ruby_system.network.routers0</title>
<path fill="none" stroke="#381526" d="M103.31,-107.57C103.4,-107.61 103.48,-107.65 103.57,-107.69"/>
<polygon fill="#381526" stroke="#381526" points="104.78,-104.39 94.24,-103.3 101.79,-110.73 104.78,-104.39"/>
<polygon fill="#381526" stroke="#381526" points="94.82,-107.44 105.36,-108.53 97.8,-101.11 94.82,-107.44"/>
</g>
<!-- board.cache_hierarchy.ruby_system.l1_controllers1 -->
<g id="node10" class="node">
<title>board.cache_hierarchy.ruby_system.l1_controllers1</title>
<path fill="#e5bcd0" stroke="#000000" d="M253.21,-76.14C253.21,-76.14 333.21,-76.14 333.21,-76.14 339.21,-76.14 345.21,-82.14 345.21,-88.14 345.21,-88.14 345.21,-100.14 345.21,-100.14 345.21,-106.14 339.21,-112.14 333.21,-112.14 333.21,-112.14 253.21,-112.14 253.21,-112.14 247.21,-112.14 241.21,-106.14 241.21,-100.14 241.21,-100.14 241.21,-88.14 241.21,-88.14 241.21,-82.14 247.21,-76.14 253.21,-76.14"/>
<text text-anchor="middle" x="293.21" y="-90.44" font-family="Arial" font-size="14.00" fill="#000000">l1_controllers1</text>
</g>
<!-- board.cache_hierarchy.ruby_system.l1_controllers1&#45;&#45;board.cache_hierarchy.ruby_system.network.routers1 -->
<g id="edge51" class="edge">
<title>board.cache_hierarchy.ruby_system.l1_controllers1&#45;&#45;board.cache_hierarchy.ruby_system.network.routers1</title>
<path fill="none" stroke="#381526" d="M241.23,-113.92C241.18,-113.94 241.14,-113.96 241.09,-113.97"/>
<polygon fill="#381526" stroke="#381526" points="237.54,-119.07 245.64,-112.24 235.05,-112.53 237.54,-119.07"/>
<polygon fill="#381526" stroke="#381526" points="249.04,-107.2 240.94,-114.03 251.54,-113.74 249.04,-107.2"/>
</g>
<!-- board.cache_hierarchy.ruby_system.l1_controllers2 -->
<g id="node11" class="node">
<title>board.cache_hierarchy.ruby_system.l1_controllers2</title>
<path fill="#e5bcd0" stroke="#000000" d="M88.76,-0.5C88.76,-0.5 168.76,-0.5 168.76,-0.5 174.76,-0.5 180.76,-6.5 180.76,-12.5 180.76,-12.5 180.76,-24.5 180.76,-24.5 180.76,-30.5 174.76,-36.5 168.76,-36.5 168.76,-36.5 88.76,-36.5 88.76,-36.5 82.76,-36.5 76.76,-30.5 76.76,-24.5 76.76,-24.5 76.76,-12.5 76.76,-12.5 76.76,-6.5 82.76,-0.5 88.76,-0.5"/>
<text text-anchor="middle" x="128.76" y="-14.8" font-family="Arial" font-size="14.00" fill="#000000">l1_controllers2</text>
</g>
<!-- board.cache_hierarchy.ruby_system.l1_controllers2&#45;&#45;board.cache_hierarchy.ruby_system.network.routers2 -->
<g id="edge52" class="edge">
<title>board.cache_hierarchy.ruby_system.l1_controllers2&#45;&#45;board.cache_hierarchy.ruby_system.network.routers2</title>
<path fill="none" stroke="#381526" d="M138.61,-46.15C141.46,-54.12 144.56,-62.83 147.4,-70.81"/>
<polygon fill="#381526" stroke="#381526" points="141.89,-44.9 135.23,-36.66 135.29,-47.25 141.89,-44.9"/>
<polygon fill="#381526" stroke="#381526" points="144.18,-72.18 150.83,-80.43 150.77,-69.83 144.18,-72.18"/>
</g>
<!-- board.cache_hierarchy.ruby_system.l1_controllers3 -->
<g id="node12" class="node">
<title>board.cache_hierarchy.ruby_system.l1_controllers3</title>
<path fill="#e5bcd0" stroke="#000000" d="M12,-167.93C12,-167.93 92,-167.93 92,-167.93 98,-167.93 104,-173.93 104,-179.93 104,-179.93 104,-191.93 104,-191.93 104,-197.93 98,-203.93 92,-203.93 92,-203.93 12,-203.93 12,-203.93 6,-203.93 0,-197.93 0,-191.93 0,-191.93 0,-179.93 0,-179.93 0,-173.93 6,-167.93 12,-167.93"/>
<text text-anchor="middle" x="52" y="-182.23" font-family="Arial" font-size="14.00" fill="#000000">l1_controllers3</text>
</g>
<!-- board.cache_hierarchy.ruby_system.l1_controllers3&#45;&#45;board.cache_hierarchy.ruby_system.network.routers3 -->
<g id="edge53" class="edge">
<title>board.cache_hierarchy.ruby_system.l1_controllers3&#45;&#45;board.cache_hierarchy.ruby_system.network.routers3</title>
<path fill="none" stroke="#381526" d="M103.12,-166.18C103.17,-166.16 103.22,-166.14 103.27,-166.12"/>
<polygon fill="#381526" stroke="#381526" points="106.77,-161.02 98.7,-167.88 109.29,-167.55 106.77,-161.02"/>
<polygon fill="#381526" stroke="#381526" points="95.35,-172.94 103.41,-166.07 92.82,-166.41 95.35,-172.94"/>
</g>
<!-- board.cache_hierarchy.ruby_system.l2_controllers -->
<g id="node13" class="node">
<title>board.cache_hierarchy.ruby_system.l2_controllers</title>
<path fill="#e5bcd0" stroke="#000000" d="M253.86,-174.19C253.86,-174.19 326.86,-174.19 326.86,-174.19 332.86,-174.19 338.86,-180.19 338.86,-186.19 338.86,-186.19 338.86,-198.19 338.86,-198.19 338.86,-204.19 332.86,-210.19 326.86,-210.19 326.86,-210.19 253.86,-210.19 253.86,-210.19 247.86,-210.19 241.86,-204.19 241.86,-198.19 241.86,-198.19 241.86,-186.19 241.86,-186.19 241.86,-180.19 247.86,-174.19 253.86,-174.19"/>
<text text-anchor="middle" x="290.36" y="-188.49" font-family="Arial" font-size="14.00" fill="#000000">l2_controllers</text>
</g>
<!-- board.cache_hierarchy.ruby_system.l2_controllers&#45;&#45;board.cache_hierarchy.ruby_system.network.routers4 -->
<g id="edge54" class="edge">
<title>board.cache_hierarchy.ruby_system.l2_controllers&#45;&#45;board.cache_hierarchy.ruby_system.network.routers4</title>
<path fill="none" stroke="#381526" d="M239.96,-169.98C239.91,-169.96 239.86,-169.94 239.81,-169.92"/>
<polygon fill="#381526" stroke="#381526" points="238.58,-173.2 249.15,-174.03 241.41,-166.8 238.58,-173.2"/>
<polygon fill="#381526" stroke="#381526" points="250.23,-170.69 239.67,-169.85 247.41,-177.09 250.23,-170.69"/>
</g>
<!-- board.cache_hierarchy.ruby_system.directory_controllers -->
<g id="node14" class="node">
<title>board.cache_hierarchy.ruby_system.directory_controllers</title>
<path fill="#e5bcd0" stroke="#000000" d="M161.1,-242.6C161.1,-242.6 275.1,-242.6 275.1,-242.6 281.1,-242.6 287.1,-248.6 287.1,-254.6 287.1,-254.6 287.1,-266.6 287.1,-266.6 287.1,-272.6 281.1,-278.6 275.1,-278.6 275.1,-278.6 161.1,-278.6 161.1,-278.6 155.1,-278.6 149.1,-272.6 149.1,-266.6 149.1,-266.6 149.1,-254.6 149.1,-254.6 149.1,-248.6 155.1,-242.6 161.1,-242.6"/>
<text text-anchor="middle" x="218.1" y="-256.9" font-family="Arial" font-size="14.00" fill="#000000">directory_controllers</text>
</g>
<!-- board.cache_hierarchy.ruby_system.directory_controllers&#45;&#45;board.cache_hierarchy.ruby_system.network.routers5 -->
<g id="edge55" class="edge">
<title>board.cache_hierarchy.ruby_system.directory_controllers&#45;&#45;board.cache_hierarchy.ruby_system.network.routers5</title>
<path fill="none" stroke="#381526" d="M207.51,-232.75C204.63,-225.16 201.5,-216.95 198.62,-209.37"/>
<polygon fill="#381526" stroke="#381526" points="204.31,-234.19 211.14,-242.3 210.86,-231.71 204.31,-234.19"/>
<polygon fill="#381526" stroke="#381526" points="201.84,-207.98 195.01,-199.88 195.3,-210.47 201.84,-207.98"/>
</g>
<!-- board.cache_hierarchy.ruby_system.dma_controllers0 -->
<g id="node15" class="node">
<title>board.cache_hierarchy.ruby_system.dma_controllers0</title>
<path fill="#e5bcd0" stroke="#000000" d="M71.51,-238.79C71.51,-238.79 168.51,-238.79 168.51,-238.79 174.51,-238.79 180.51,-244.79 180.51,-250.79 180.51,-250.79 180.51,-262.79 180.51,-262.79 180.51,-268.79 174.51,-274.79 168.51,-274.79 168.51,-274.79 71.51,-274.79 71.51,-274.79 65.51,-274.79 59.51,-268.79 59.51,-262.79 59.51,-262.79 59.51,-250.79 59.51,-250.79 59.51,-244.79 65.51,-238.79 71.51,-238.79"/>
<text text-anchor="middle" x="120.01" y="-253.09" font-family="Arial" font-size="14.00" fill="#000000">dma_controllers0</text>
</g>
<!-- board.cache_hierarchy.ruby_system.dma_controllers0&#45;&#45;board.cache_hierarchy.ruby_system.network.routers6 -->
<g id="edge56" class="edge">
<title>board.cache_hierarchy.ruby_system.dma_controllers0&#45;&#45;board.cache_hierarchy.ruby_system.network.routers6</title>
<path fill="none" stroke="#381526" d="M132.19,-229.45C135.61,-221.77 139.33,-213.43 142.75,-205.75"/>
<polygon fill="#381526" stroke="#381526" points="128.98,-228.05 128.11,-238.6 135.38,-230.89 128.98,-228.05"/>
<polygon fill="#381526" stroke="#381526" points="146.01,-207.04 146.89,-196.48 139.62,-204.19 146.01,-207.04"/>
</g>
<!-- board.cache_hierarchy.ruby_system.dma_controllers1 -->
<g id="node16" class="node">
<title>board.cache_hierarchy.ruby_system.dma_controllers1</title>
<path fill="#e5bcd0" stroke="#000000" d="M178.12,-4.69C178.12,-4.69 275.12,-4.69 275.12,-4.69 281.12,-4.69 287.12,-10.69 287.12,-16.69 287.12,-16.69 287.12,-28.69 287.12,-28.69 287.12,-34.69 281.12,-40.69 275.12,-40.69 275.12,-40.69 178.12,-40.69 178.12,-40.69 172.12,-40.69 166.12,-34.69 166.12,-28.69 166.12,-28.69 166.12,-16.69 166.12,-16.69 166.12,-10.69 172.12,-4.69 178.12,-4.69"/>
<text text-anchor="middle" x="226.62" y="-18.99" font-family="Arial" font-size="14.00" fill="#000000">dma_controllers1</text>
</g>
<!-- board.cache_hierarchy.ruby_system.dma_controllers1&#45;&#45;board.cache_hierarchy.ruby_system.network.routers7 -->
<g id="edge57" class="edge">
<title>board.cache_hierarchy.ruby_system.dma_controllers1&#45;&#45;board.cache_hierarchy.ruby_system.network.routers7</title>
<path fill="none" stroke="#381526" d="M213.89,-50.14C210.55,-57.34 206.95,-65.1 203.61,-72.3"/>
<polygon fill="#381526" stroke="#381526" points="217.11,-51.51 218.14,-40.96 210.76,-48.56 217.11,-51.51"/>
<polygon fill="#381526" stroke="#381526" points="200.3,-71.12 199.27,-81.67 206.65,-74.07 200.3,-71.12"/>
</g>
</g>
</svg>
